<svg width="21" height="22" viewBox="0 0 21 22" fill="none" xmlns="http://www.w3.org/2000/svg">
<path d="M6.20201 6.30748C6.54129 5.96819 6.71094 5.56194 6.71094 5.08873C6.71094 4.61551 6.54129 4.21373 6.20201 3.88337C5.87165 3.54408 5.46987 3.37444 4.99665 3.37444C4.52344 3.37444 4.11719 3.54408 3.7779 3.88337C3.44754 4.21373 3.28237 4.61551 3.28237 5.08873C3.28237 5.56194 3.44754 5.96819 3.7779 6.30748C4.11719 6.63783 4.52344 6.80301 4.99665 6.80301C5.46987 6.80301 5.87165 6.63783 6.20201 6.30748ZM21.0011 12.803C21.0011 13.2762 20.8359 13.678 20.5056 14.0084L13.9297 20.5977C13.5815 20.928 13.1752 21.0932 12.7109 21.0932C12.2377 21.0932 11.8359 20.928 11.5056 20.5977L1.92969 11.0084C1.5904 10.678 1.30022 10.2271 1.05915 9.65569C0.827009 9.08426 0.710938 8.56194 0.710938 8.08873V2.5173C0.710938 2.05301 0.88058 1.65123 1.21987 1.31194C1.55915 0.972655 1.96094 0.803012 2.42522 0.803012H7.99665C8.46987 0.803012 8.99219 0.923548 9.56362 1.16462C10.135 1.39676 10.5904 1.68248 10.9297 2.02176L20.5056 11.5843C20.8359 11.9325 21.0011 12.3387 21.0011 12.803Z" fill="#E3B04A"/>
</svg>
