<?xml version="1.0" encoding="UTF-8" standalone="no" ?>
<!DOCTYPE svg PUBLIC "-//W3C//DTD SVG 1.1//EN" "http://www.w3.org/Graphics/SVG/1.1/DTD/svg11.dtd">
<svg xmlns="http://www.w3.org/2000/svg" xmlns:xlink="http://www.w3.org/1999/xlink" version="1.1" width="400" height="400" viewBox="0 0 400 400" xml:space="preserve">
<desc>Created with Fabric.js 3.6.2</desc>
<defs>
</defs>
<g transform="matrix(3.13 0 0 3.13 189.22 186.72)" id="Fill-110"  >
<path style="stroke: none; stroke-width: 1; stroke-dasharray: none; stroke-linecap: butt; stroke-dashoffset: 0; stroke-linejoin: miter; stroke-miterlimit: 4; fill: rgb(19,69,99); fill-rule: nonzero; opacity: 1;"  transform=" translate(47.45, 450.25)" d="M -27.5 -432.3 h -30.3 c -0.5 0 -0.9 -0.2 -1.1 -0.6 c -0.3 -0.4 -0.3 -0.9 -0.1 -1.3 l 2.6 -6.6 l -2.6 -24.6 h -8.4 v -2.8 h 9.6 c 0.7 0 1.3 0.5 1.4 1.2 l 2.8 26.1 c 0 0.2 0 0.4 -0.1 0.7 l -2 5 h 28.2 V -432.3" stroke-linecap="round" />
</g>
<g transform="matrix(3.13 0 0 3.13 217.19 184.69)" id="Fill-111"  >
<path style="stroke: none; stroke-width: 1; stroke-dasharray: none; stroke-linecap: butt; stroke-dashoffset: 0; stroke-linejoin: miter; stroke-miterlimit: 4; fill: rgb(19,69,99); fill-rule: nonzero; opacity: 1;"  transform=" translate(38.5, 450.9)" d="M -54.7 -439.2 l -0.6 -2.7 l 31.9 -6.6 v -11.3 h -33 v -2.8 H -22 c 0.8 0 1.4 0.6 1.4 1.4 v 13.8 c 0 0.7 -0.5 1.2 -1.1 1.3 L -54.7 -439.2" stroke-linecap="round" />
</g>
<g transform="matrix(3.13 0 0 3.13 255.94 251.56)" id="Fill-112"  >
<path style="stroke: none; stroke-width: 1; stroke-dasharray: none; stroke-linecap: butt; stroke-dashoffset: 0; stroke-linejoin: miter; stroke-miterlimit: 4; fill: rgb(19,69,99); fill-rule: nonzero; opacity: 1;"  transform=" translate(26.1, 429.5)" d="M -26.1 -424 c -3 0 -5.5 -2.5 -5.5 -5.5 s 2.5 -5.5 5.5 -5.5 c 3 0 5.5 2.5 5.5 5.5 S -23.1 -424 -26.1 -424 L -26.1 -424 z M -26.1 -432.3 c -1.5 0 -2.8 1.2 -2.8 2.8 s 1.2 2.8 2.8 2.8 s 2.8 -1.2 2.8 -2.8 S -24.6 -432.3 -26.1 -432.3 L -26.1 -432.3 z" stroke-linecap="round" />
</g>
<g transform="matrix(3.13 0 0 3.13 152.81 251.56)" id="Fill-113"  >
<path style="stroke: none; stroke-width: 1; stroke-dasharray: none; stroke-linecap: butt; stroke-dashoffset: 0; stroke-linejoin: miter; stroke-miterlimit: 4; fill: rgb(19,69,99); fill-rule: nonzero; opacity: 1;"  transform=" translate(59.1, 429.5)" d="M -59.1 -424 c -3 0 -5.5 -2.5 -5.5 -5.5 s 2.5 -5.5 5.5 -5.5 s 5.5 2.5 5.5 5.5 S -56.1 -424 -59.1 -424 L -59.1 -424 z M -59.1 -432.3 c -1.5 0 -2.8 1.2 -2.8 2.8 s 1.2 2.8 2.8 2.8 s 2.8 -1.2 2.8 -2.8 S -57.6 -432.3 -59.1 -432.3 L -59.1 -432.3 z" stroke-linecap="round" />
</g>
</svg>