<svg width="24" height="25" viewBox="0 0 24 25" fill="none" xmlns="http://www.w3.org/2000/svg">
<path d="M20.3973 18.0852C20.2009 16.7013 19.808 15.554 19.2188 14.6433C18.6384 13.7236 17.817 13.1924 16.7545 13.0495C16.1563 13.7102 15.442 14.2281 14.6116 14.6031C13.7902 14.9692 12.9196 15.1522 12 15.1522C11.0804 15.1522 10.2054 14.9692 9.375 14.6031C8.55357 14.2281 7.84375 13.7102 7.24554 13.0495C6.18304 13.1924 5.35714 13.7236 4.76786 14.6433C4.1875 15.554 3.79911 16.7013 3.60268 18.0852C4.54911 19.4245 5.75893 20.4826 7.23214 21.2593C8.70536 22.0451 10.2946 22.4379 12 22.4379C13.7054 22.4379 15.2946 22.0451 16.7679 21.2593C18.2411 20.4826 19.4509 19.4245 20.3973 18.0852ZM15.6295 12.3665C16.6384 11.3576 17.1429 10.1433 17.1429 8.72363C17.1429 7.30399 16.6384 6.09417 15.6295 5.09417C14.6295 4.08524 13.4196 3.58078 12 3.58078C10.5804 3.58078 9.36607 4.08524 8.35714 5.09417C7.35714 6.09417 6.85714 7.30399 6.85714 8.72363C6.85714 10.1433 7.35714 11.3576 8.35714 12.3665C9.36607 13.3665 10.5804 13.8665 12 13.8665C13.4196 13.8665 14.6295 13.3665 15.6295 12.3665ZM23.0491 7.49149C23.683 8.97363 24 10.5272 24 12.1522C24 13.7772 23.683 15.3308 23.0491 16.8129C22.4152 18.2861 21.5625 19.5629 20.4911 20.6433C19.4286 21.7147 18.1563 22.5674 16.6741 23.2013C15.192 23.8352 13.6339 24.1522 12 24.1522C10.375 24.1522 8.82143 23.8352 7.33929 23.2013C5.85714 22.5674 4.58036 21.7147 3.50893 20.6433C2.4375 19.5718 1.58482 18.2951 0.950893 16.8129C0.316964 15.3308 0 13.7772 0 12.1522C0 10.5272 0.316964 8.97363 0.950893 7.49149C1.58482 6.00935 2.4375 4.73256 3.50893 3.66113C4.58036 2.5897 5.85714 1.73702 7.33929 1.1031C8.82143 0.469167 10.375 0.152203 12 0.152203C13.625 0.152203 15.1786 0.469167 16.6607 1.1031C18.1429 1.73702 19.4196 2.5897 20.4911 3.66113C21.5625 4.73256 22.4152 6.00935 23.0491 7.49149Z" fill="#E3B04A"/>
</svg>
